<svg id="Layer_1" data-name="Layer 1" xmlns="http://www.w3.org/2000/svg" viewBox="0 0 500 500"><title>Facebook logo - Brandlogos.net</title><path d="M640,457c0-138.07-111.93-250-250-250S140,318.93,140,457c0,117.25,80.71,215.62,189.61,242.64V533.4H278.05V457h51.55V424.08c0-85.09,38.51-124.53,122-124.53,15.84,0,43.17,3.11,54.35,6.21V375c-5.9-.62-16.15-.93-28.88-.93-41,0-56.83,15.53-56.83,55.9v27h81.66l-14,76.4H420.29V705.17C544.07,690.22,640,584.82,640,457" transform="translate(-140 -207)" style="fill:#0866ff"/><path d="M487.92,533.4l14-76.4H420.29V430c0-40.37,15.84-55.9,56.83-55.9,12.73,0,23,.31,28.88.93V305.76c-11.18-3.11-38.51-6.21-54.35-6.21-83.54,0-122,39.44-122,124.53V457H278.05v76.4h51.55V699.64a251.41,251.41,0,0,0,90.68,5.53V533.4Z" transform="translate(-140 -207)" style="fill:#fff"/></svg>